<svg width="13" height="13" viewBox="0 0 13 13" fill="none" xmlns="http://www.w3.org/2000/svg">
<path d="M12.6196 1.49324H11.4122V1.05405C11.4122 0.472875 10.878 0 10.2214 0C9.56478 0 9.03053 0.472875 9.03053 1.05405V1.49324H7.69084V1.05405C7.69084 0.472875 7.1566 0 6.5 0C5.8434 0 5.30916 0.472875 5.30916 1.05405V1.49324H3.96947V1.05405C3.96947 0.472875 3.43523 0 2.77863 0C2.12203 0 1.58779 0.472875 1.58779 1.05405V1.49324H0.413469C0.194256 1.49324 0 1.65056 0 1.84459V4.39189V12.6486C0 12.8427 0.194256 13 0.413469 13H12.6196C12.8388 13 13 12.8427 13 12.6486V4.39189V1.84459C13 1.65056 12.8388 1.49324 12.6196 1.49324ZM2.77863 0.702703C2.99749 0.702703 3.17557 0.860328 3.17557 1.05405V2.28378C3.17557 2.47751 2.99749 2.63514 2.77863 2.63514C2.55976 2.63514 2.38168 2.47751 2.38168 2.28378V1.05405C2.38168 0.860328 2.55976 0.702703 2.77863 0.702703ZM6.5 0.702703C6.71887 0.702703 6.89695 0.860328 6.89695 1.05405V2.28378C6.89695 2.47751 6.71887 2.63514 6.5 2.63514C6.28113 2.63514 6.10305 2.47751 6.10305 2.28378V1.05405C6.10305 0.860328 6.28113 0.702703 6.5 0.702703ZM10.2214 0.702703C10.4402 0.702703 10.6183 0.860328 10.6183 1.05405V2.28378C10.6183 2.47751 10.4402 2.63514 10.2214 2.63514C10.0025 2.63514 9.82443 2.47751 9.82443 2.28378V1.05405C9.82443 0.860328 10.0025 0.702703 10.2214 0.702703ZM0.793893 7.51014H3.91985V9.57432H0.793893V7.51014ZM0.793893 10.2331H3.91985V12.2973H0.793893V10.2331ZM4.66412 10.2331H8.23664V12.2973H4.66412V10.2331ZM8.98092 10.2331H12.2061V12.2973H8.98092V10.2331ZM12.2061 9.57432H8.98092V7.51014H12.2061V9.57432ZM8.23664 9.57432H4.66412V7.51014H8.23664V9.57432ZM4.66412 6.85135V4.74324H8.23664V6.85135H4.66412ZM3.91985 4.74324V6.85135H0.793893V4.74324H3.91985ZM12.2061 6.85135H8.98092V4.74324H12.2061V6.85135Z" fill="white"/>
<path d="M2.22827 6.57076L3.40824 5.43462L2.86031 4.98875L2.15483 5.66805L1.84765 5.44657L1.37756 5.9573L2.22827 6.57076Z" fill="white"/>
<path d="M7.00337 4.98875L6.2979 5.66805L5.99071 5.44657L5.52063 5.9573L6.37134 6.57076L7.55131 5.43462L7.00337 4.98875Z" fill="white"/>
<path d="M10.4401 6.57076L11.62 5.43462L11.0721 4.98875L10.3666 5.66805L10.0594 5.44657L9.58936 5.9573L10.4401 6.57076Z" fill="white"/>
<path d="M2.86031 7.71172L2.15483 8.39101L1.84765 8.16953L1.37756 8.68026L2.22827 9.29372L3.40824 8.15758L2.86031 7.71172Z" fill="white"/>
<path d="M6.37134 9.29372L7.55131 8.15758L7.00337 7.71172L6.2979 8.39101L5.99071 8.16953L5.52063 8.68026L6.37134 9.29372Z" fill="white"/>
<path d="M10.4401 9.29372L11.62 8.15758L11.0721 7.71172L10.3666 8.39101L10.0594 8.16953L9.58936 8.68026L10.4401 9.29372Z" fill="white"/>
<path d="M2.86031 10.4786L2.15483 11.1579L1.84765 10.9364L1.37756 11.4472L2.22827 12.0606L3.40824 10.9245L2.86031 10.4786Z" fill="white"/>
<path d="M7.00337 10.4786L6.2979 11.1579L5.99071 10.9364L5.52063 11.4472L6.37134 12.0606L7.55131 10.9245L7.00337 10.4786Z" fill="white"/>
</svg>
