<svg width="22" height="22" viewBox="0 0 22 22" fill="none" xmlns="http://www.w3.org/2000/svg">
<path fill-rule="evenodd" clip-rule="evenodd" d="M2.02906 1.96655L2.03209 1.96484C2.03451 1.96358 2.03866 1.96155 2.04496 1.95897C2.07218 1.94777 2.13264 1.92864 2.25333 1.91242C2.51674 1.877 2.88424 1.87502 3.50001 1.87502H6.00001C6.61577 1.87502 6.98327 1.877 7.24668 1.91242C7.36737 1.92864 7.42782 1.94777 7.45504 1.95897C7.46136 1.96155 7.46549 1.96358 7.46792 1.96484L7.47095 1.96655L7.47268 1.9696C7.47394 1.97202 7.47597 1.97617 7.47856 1.98247C7.48976 2.00969 7.50887 2.07014 7.52511 2.19084C7.56052 2.45424 7.56251 2.82175 7.56251 3.43752V8.4375C7.56251 9.05325 7.56052 9.42075 7.52511 9.68413C7.50887 9.80488 7.48976 9.86538 7.47856 9.8925C7.47597 9.89888 7.47394 9.903 7.47268 9.90538L7.47095 9.9085L7.46792 9.91013C7.46549 9.9115 7.46136 9.9135 7.45504 9.916C7.42782 9.92725 7.36737 9.94638 7.24668 9.96263C6.98327 9.998 6.61577 10 6.00001 10H3.50001C2.88424 10 2.51674 9.998 2.25333 9.96263C2.13264 9.94638 2.07218 9.92725 2.04496 9.916C2.03866 9.9135 2.03451 9.9115 2.03209 9.91013L2.02906 9.9085L2.02733 9.90538C2.02607 9.903 2.02404 9.89888 2.02146 9.8925C2.01026 9.86538 1.99114 9.80488 1.97491 9.68413C1.93949 9.42075 1.93751 9.05325 1.93751 8.4375V3.43752C1.93751 2.82175 1.93949 2.45424 1.97491 2.19084C1.99114 2.07014 2.01026 2.00969 2.02146 1.98247C2.02404 1.97617 2.02607 1.97202 2.02733 1.9696L2.02906 1.96655ZM3.44407 4.19874e-06C3.46267 1.66987e-05 3.48131 1.67157e-05 3.50001 1.67157e-05H6.00001C6.01871 1.67157e-05 6.03734 1.66987e-05 6.05594 4.19874e-06C6.59696 -5.83013e-05 7.09301 -0.000108392 7.49652 0.0541416C7.94087 0.113879 8.41052 0.254442 8.79676 0.640717C9.18313 1.02699 9.32363 1.49665 9.38338 1.941C9.43763 2.34452 9.43763 2.84057 9.43751 3.38158C9.43751 3.40018 9.43751 3.41882 9.43751 3.43752V8.4375C9.43751 8.45625 9.43751 8.47488 9.43751 8.4935C9.43763 9.0345 9.43763 9.5305 9.38338 9.934C9.32363 10.3784 9.18313 10.848 8.79676 11.2343C8.41052 11.6206 7.94087 11.7611 7.49652 11.8209C7.09299 11.8751 6.59695 11.8751 6.05593 11.875C6.03734 11.875 6.01871 11.875 6.00001 11.875H3.50001C3.48131 11.875 3.46267 11.875 3.44408 11.875C2.90306 11.8751 2.40701 11.8751 2.00349 11.8209C1.55914 11.7611 1.08949 11.6206 0.703205 11.2343C0.31693 10.848 0.176368 10.3784 0.11663 9.934C0.0623804 9.5305 0.0624305 9.0345 0.0625055 8.4935C0.0625055 8.47488 0.0625055 8.45625 0.0625055 8.4375V3.43752C0.0625055 3.41882 0.0625055 3.40017 0.0625055 3.38158C0.0624305 2.84055 0.0623804 2.34452 0.11663 1.941C0.176368 1.49665 0.31693 1.02699 0.703205 0.640717C1.08949 0.254442 1.55914 0.113879 2.00349 0.0541416C2.40701 -0.000108392 2.90304 -5.83013e-05 3.44407 4.19874e-06ZM14.5321 1.96484L14.529 1.96655L14.5274 1.9696C14.5261 1.97202 14.524 1.97617 14.5215 1.98247C14.5103 2.00969 14.4911 2.07014 14.4749 2.19084C14.4395 2.45424 14.4375 2.82175 14.4375 3.43752C14.4375 4.05327 14.4395 4.42078 14.4749 4.68418C14.4911 4.80488 14.5103 4.86533 14.5215 4.89255C14.5225 4.89508 14.5243 4.89913 14.5243 4.89913C14.5255 4.9019 14.5274 4.90543 14.5274 4.90543L14.529 4.90847L14.5321 4.91019C14.5345 4.91145 14.5386 4.91347 14.545 4.91607C14.5721 4.92727 14.6326 4.94638 14.7534 4.9626C15.0168 4.99802 15.3843 5.00002 16 5.00002H18.5C19.1158 5.00002 19.4833 4.99802 19.7466 4.9626C19.8674 4.94638 19.9279 4.92727 19.955 4.91607C19.9614 4.91347 19.9655 4.91145 19.9679 4.91019L19.971 4.90847L19.9726 4.90543C19.9739 4.903 19.976 4.89887 19.9785 4.89255C19.9898 4.86533 20.0089 4.80488 20.0251 4.68418C20.0605 4.42078 20.0625 4.05327 20.0625 3.43752C20.0625 2.82175 20.0605 2.45424 20.0251 2.19084C20.0089 2.07014 19.9898 2.00969 19.9785 1.98247C19.976 1.97617 19.9739 1.97202 19.9726 1.9696L19.971 1.96655L19.9679 1.96484C19.9655 1.96358 19.9614 1.96155 19.955 1.95897C19.9279 1.94777 19.8674 1.92864 19.7466 1.91242C19.4833 1.877 19.1158 1.87502 18.5 1.87502H16C15.3843 1.87502 15.0168 1.877 14.7534 1.91242C14.6326 1.92864 14.5721 1.94777 14.545 1.95897C14.5386 1.96155 14.5345 1.96358 14.5321 1.96484ZM15.9441 4.19874e-06H18.5559C19.097 -5.83013e-05 19.593 -0.000108392 19.9965 0.0541416C20.4409 0.113879 20.9105 0.254442 21.2968 0.640717C21.6831 1.02699 21.8236 1.49665 21.8834 1.941C21.9376 2.34452 21.9376 2.84055 21.9375 3.38158V3.49344C21.9376 4.03447 21.9376 4.5305 21.8834 4.93402C21.8236 5.37838 21.6831 5.84803 21.2968 6.2343C20.9105 6.62059 20.4409 6.76114 19.9965 6.82089C19.593 6.87514 19.097 6.87508 18.5559 6.87502H15.9441C15.403 6.87508 14.907 6.87514 14.5035 6.82089C14.0591 6.76114 13.5895 6.62059 13.2033 6.2343C12.8169 5.84803 12.6764 5.37838 12.6166 4.93402C12.5624 4.5305 12.5624 4.03447 12.5625 3.49344C12.5625 3.47485 12.5625 3.4562 12.5625 3.43752C12.5625 3.41882 12.5625 3.40018 12.5625 3.38158C12.5624 2.84057 12.5624 2.34452 12.6166 1.941C12.6764 1.49665 12.8169 1.02699 13.2033 0.640717C13.5895 0.254442 14.0591 0.113879 14.5035 0.0541416C14.907 -0.000108392 15.403 -5.83013e-05 15.9441 4.19874e-06ZM15.9441 10H18.5559C19.097 10 19.593 9.99988 19.9965 10.0541C20.4409 10.1139 20.9105 10.2544 21.2968 10.6408C21.6831 11.027 21.8236 11.4966 21.8834 11.941C21.9376 12.3445 21.9376 12.8405 21.9375 13.3816V18.4935C21.9376 19.0345 21.9376 19.5305 21.8834 19.934C21.8236 20.3784 21.6831 20.848 21.2968 21.2343C20.9105 21.6206 20.4409 21.7611 19.9965 21.8209C19.593 21.8751 19.097 21.8751 18.5559 21.875H15.9441C15.403 21.8751 14.907 21.8751 14.5035 21.8209C14.0591 21.7611 13.5895 21.6206 13.2033 21.2343C12.8169 20.848 12.6764 20.3784 12.6166 19.934C12.5624 19.5305 12.5624 19.0345 12.5625 18.4935V13.4375C12.5625 13.4189 12.5625 13.4001 12.5625 13.3816C12.5624 12.8405 12.5624 12.3445 12.6166 11.941C12.6764 11.4966 12.8169 11.027 13.2033 10.6408C13.5895 10.2544 14.0591 10.1139 14.5035 10.0541C14.907 9.99988 15.403 10 15.9441 10ZM14.5321 11.9649L14.529 11.9665L14.5274 11.9696C14.5261 11.972 14.524 11.9761 14.5215 11.9825C14.5103 12.0098 14.4911 12.0701 14.4749 12.1909C14.4395 12.4543 14.4375 12.8218 14.4375 13.4375V18.4375C14.4375 19.0533 14.4395 19.4208 14.4749 19.6841C14.4911 19.8049 14.5103 19.8654 14.5215 19.8925C14.524 19.8989 14.5261 19.903 14.5274 19.9054L14.529 19.9085L14.5321 19.9101C14.5345 19.9115 14.5386 19.9135 14.545 19.916C14.5721 19.9273 14.6326 19.9464 14.7534 19.9626C15.0168 19.998 15.3843 20 16 20H18.5C19.1158 20 19.4833 19.998 19.7466 19.9626C19.8674 19.9464 19.9279 19.9273 19.955 19.916C19.9614 19.9135 19.9655 19.9115 19.9679 19.9101L19.971 19.9085L19.9726 19.9054C19.9739 19.903 19.976 19.8989 19.9785 19.8925C19.9898 19.8654 20.0089 19.8049 20.0251 19.6841C20.0605 19.4208 20.0625 19.0533 20.0625 18.4375V13.4375C20.0625 12.8218 20.0605 12.4543 20.0251 12.1909C20.0089 12.0701 19.9898 12.0098 19.9785 11.9825C19.977 11.9788 19.9756 11.9758 19.9746 11.9734L19.9726 11.9696L19.971 11.9665L19.9679 11.9649C19.9655 11.9636 19.9614 11.9615 19.955 11.959C19.9279 11.9478 19.8674 11.9286 19.7466 11.9124C19.4833 11.877 19.1158 11.875 18.5 11.875H16C15.3843 11.875 15.0168 11.877 14.7534 11.9124C14.6326 11.9286 14.5721 11.9478 14.545 11.959C14.5386 11.9615 14.5345 11.9636 14.5321 11.9649ZM2.03209 16.9649L2.02906 16.9665L2.02733 16.9696C2.02607 16.972 2.02404 16.9761 2.02146 16.9825C2.01026 17.0098 1.99113 17.0701 1.97491 17.1909C1.93949 17.4543 1.93751 17.8218 1.93751 18.4375C1.93751 19.0533 1.93949 19.4208 1.97491 19.6841C1.99113 19.8049 2.01026 19.8654 2.02146 19.8925C2.02404 19.8989 2.02607 19.903 2.02733 19.9054L2.02906 19.9085L2.03209 19.9101C2.03451 19.9115 2.03866 19.9135 2.04496 19.916C2.07218 19.9273 2.13264 19.9464 2.25333 19.9626C2.51674 19.998 2.88424 20 3.50001 20H6.00001C6.61577 20 6.98327 19.998 7.24668 19.9626C7.36737 19.9464 7.42782 19.9273 7.45504 19.916C7.45823 19.9148 7.46301 19.9126 7.46301 19.9126L7.46792 19.9101L7.47095 19.9085L7.47268 19.9054L7.4745 19.9018C7.47562 19.8994 7.47698 19.8964 7.47856 19.8925C7.48976 19.8654 7.50887 19.8049 7.52511 19.6841C7.56052 19.4208 7.56251 19.0533 7.56251 18.4375C7.56251 17.8218 7.56052 17.4543 7.52511 17.1909C7.50887 17.0701 7.48976 17.0098 7.47856 16.9825C7.47597 16.9761 7.47394 16.972 7.47268 16.9696L7.47095 16.9665L7.46792 16.9649C7.46549 16.9636 7.46136 16.9615 7.45504 16.959C7.42782 16.9478 7.36737 16.9286 7.24668 16.9124C6.98327 16.877 6.61577 16.875 6.00001 16.875H3.50001C2.88424 16.875 2.51674 16.877 2.25333 16.9124C2.13264 16.9286 2.07218 16.9478 2.04496 16.959C2.03866 16.9615 2.03451 16.9636 2.03209 16.9649ZM3.44408 15H6.05593C6.59695 15 7.09299 14.9999 7.49652 15.0541C7.94087 15.1139 8.41052 15.2544 8.79676 15.6408C9.18313 16.027 9.32363 16.4966 9.38338 16.941C9.43763 17.3445 9.43763 17.8405 9.43751 18.3816V18.4935C9.43763 19.0345 9.43763 19.5305 9.38338 19.934C9.32363 20.3784 9.18313 20.848 8.79676 21.2343C8.41052 21.6206 7.94087 21.7611 7.49652 21.8209C7.09299 21.8751 6.59695 21.8751 6.05593 21.875H3.44407C2.90306 21.8751 2.40701 21.8751 2.00349 21.8209C1.55914 21.7611 1.08949 21.6206 0.703205 21.2343C0.31693 20.848 0.176368 20.3784 0.11663 19.934C0.0623804 19.5305 0.0624305 19.0345 0.0625055 18.4935V18.3816C0.0624305 17.8405 0.0623804 17.3445 0.11663 16.941C0.176368 16.4966 0.31693 16.027 0.703205 15.6408C1.08949 15.2544 1.55914 15.1139 2.00349 15.0541C2.40701 14.9999 2.90306 15 3.44408 15Z" fill="white"/>
</svg>
