<svg width="32" height="32" viewBox="0 0 32 32" fill="none" xmlns="http://www.w3.org/2000/svg">
<path d="M10 20H2C1.46957 20 0.960859 20.2107 0.585786 20.5858C0.210714 20.9609 0 21.4696 0 22C0 22.5304 0.210714 23.0391 0.585786 23.4142C0.960859 23.7893 1.46957 24 2 24H8V30C8 30.5304 8.21071 31.0391 8.58579 31.4142C8.96086 31.7893 9.46957 32 10 32C10.5304 32 11.0391 31.7893 11.4142 31.4142C11.7893 31.0391 12 30.5304 12 30V22C12.0001 21.7373 11.9485 21.4772 11.8481 21.2345C11.7476 20.9917 11.6003 20.7712 11.4145 20.5855C11.2288 20.3997 11.0083 20.2524 10.7655 20.1519C10.5228 20.0515 10.2627 19.9999 10 20Z" fill="#4D4D4D"/>
<path d="M30 20H22C21.7373 19.9999 21.4772 20.0515 21.2345 20.1519C20.9917 20.2524 20.7712 20.3997 20.5855 20.5855C20.3997 20.7712 20.2524 20.9917 20.1519 21.2345C20.0515 21.4772 19.9999 21.7373 20 22V30C20 30.5304 20.2107 31.0391 20.5858 31.4142C20.9609 31.7893 21.4696 32 22 32C22.5304 32 23.0391 31.7893 23.4142 31.4142C23.7893 31.0391 24 30.5304 24 30V24H30C30.5304 24 31.0391 23.7893 31.4142 23.4142C31.7893 23.0391 32 22.5304 32 22C32 21.4696 31.7893 20.9609 31.4142 20.5858C31.0391 20.2107 30.5304 20 30 20Z" fill="#4D4D4D"/>
<path d="M22 12H30C30.5304 12 31.0391 11.7893 31.4142 11.4142C31.7893 11.0391 32 10.5304 32 10C32 9.46957 31.7893 8.96086 31.4142 8.58579C31.0391 8.21071 30.5304 8 30 8H24V2C24 1.46957 23.7893 0.960859 23.4142 0.585786C23.0391 0.210714 22.5304 0 22 0C21.4696 0 20.9609 0.210714 20.5858 0.585786C20.2107 0.960859 20 1.46957 20 2V10C19.9999 10.2627 20.0515 10.5228 20.1519 10.7655C20.2524 11.0083 20.3997 11.2288 20.5855 11.4145C20.7712 11.6003 20.9917 11.7476 21.2345 11.8481C21.4772 11.9485 21.7373 12.0001 22 12Z" fill="#4D4D4D"/>
<path d="M10 3.21505e-07C9.73731 -0.00014866 9.47718 0.0514812 9.23446 0.151938C8.99174 0.252394 8.7712 0.399708 8.58545 0.585454C8.39971 0.771201 8.25239 0.991739 8.15194 1.23446C8.05148 1.47718 7.99985 1.73731 8 2V8H2C1.46957 8 0.960859 8.21071 0.585786 8.58579C0.210714 8.96086 0 9.46957 0 10C0 10.5304 0.210714 11.0391 0.585786 11.4142C0.960859 11.7893 1.46957 12 2 12H10C10.2627 12.0001 10.5228 11.9485 10.7655 11.8481C11.0083 11.7476 11.2288 11.6003 11.4145 11.4145C11.6003 11.2288 11.7476 11.0083 11.8481 10.7655C11.9485 10.5228 12.0001 10.2627 12 10V2C12.0001 1.73731 11.9485 1.47718 11.8481 1.23446C11.7476 0.991739 11.6003 0.771201 11.4145 0.585454C11.2288 0.399708 11.0083 0.252394 10.7655 0.151938C10.5228 0.0514812 10.2627 -0.00014866 10 3.21505e-07Z" fill="#4D4D4D"/>
</svg>
