<svg width="31" height="31" viewBox="0 0 31 31" fill="none" xmlns="http://www.w3.org/2000/svg">
<path d="M17.4693 30.0885C15.1501 30.0925 12.854 29.7011 10.7195 28.9378C10.3828 28.8045 10.1206 28.5667 9.98776 28.2742C9.85494 27.9817 9.86185 27.6573 10.0071 27.369C10.1523 27.0807 10.4245 26.8509 10.7666 26.7279C11.1087 26.6048 11.4942 26.5981 11.8421 26.7091C13.6216 27.3449 15.536 27.6704 17.4693 27.6659C20.51 27.6629 23.4728 26.8557 25.9388 25.3585C23.2121 24.9137 20.652 23.9247 18.4736 22.4745C16.2952 21.0244 14.5622 19.1554 13.42 17.0245C12.2779 14.8937 11.76 12.5633 11.9099 10.2291C12.0598 7.89495 12.8731 5.62512 14.2815 3.61033C11.082 4.22407 8.22425 5.73264 6.17492 7.88971C4.1256 10.0468 3.00576 12.7249 2.99829 15.4867C2.98886 18.073 3.9677 20.5933 5.7903 22.6756C6.01646 22.935 6.11091 23.2594 6.05288 23.5774C5.99485 23.8954 5.7891 24.181 5.48088 24.3713C5.17266 24.5617 4.78722 24.6412 4.40937 24.5923C4.03151 24.5435 3.69218 24.3703 3.46602 24.1109C1.58142 21.9403 0.445096 19.374 0.182187 16.6947C-0.0807215 14.0154 0.53998 11.327 1.97594 8.9256C3.41191 6.52415 5.60743 4.5028 8.32075 3.08412C11.0341 1.66544 14.1599 0.904465 17.3541 0.884994C17.6334 0.883137 17.9073 0.949715 18.1424 1.07661C18.3775 1.20351 18.5637 1.38524 18.6782 1.59964C18.7936 1.81357 18.8326 2.05115 18.7905 2.28342C18.7483 2.51569 18.6268 2.73263 18.4407 2.9078C16.5818 4.66094 15.3651 6.82923 14.9373 9.15124C14.5096 11.4732 14.8891 13.8498 16.03 15.9944C17.171 18.139 19.0247 19.96 21.3676 21.2379C23.7105 22.5158 26.4427 23.1959 29.2346 23.1964H29.3281C29.607 23.1962 29.8799 23.2643 30.1137 23.3922C30.3475 23.5202 30.532 23.7025 30.645 23.9171C30.7579 24.1308 30.795 24.3675 30.7515 24.5986C30.7081 24.8297 30.5861 25.0452 30.4003 25.2192C28.7735 26.7511 26.7808 27.9767 24.5525 28.8158C22.3242 29.6549 19.9104 30.0885 17.4693 30.0885Z" fill="#4D4D4D"/>
</svg>
