<svg width="26" height="25" viewBox="0 0 26 25" fill="none" xmlns="http://www.w3.org/2000/svg">
<path d="M25.8076 17.5243L22.3393 14.0559L25.6501 7.43432C26.0006 6.73339 26.007 6.0167 25.6678 5.46778C25.3286 4.91894 24.6847 4.60425 23.9011 4.60425H19.2723C18.1331 2.19289 15.6783 0.519853 12.8391 0.519853C10.0002 0.519853 7.54562 2.19289 6.40644 4.60425H3.63862V0.656712C3.63862 0.293944 3.34468 0 2.98191 0H0.656712C0.293944 0 0 0.293944 0 0.656712C0 1.01948 0.293944 1.31342 0.656712 1.31342H2.3252V20.7454C2.3252 21.1082 2.61914 21.4021 2.98191 21.4021H3.82355C3.66261 21.6886 3.57015 22.02 3.57015 22.3731C3.57015 23.4544 4.4328 24.3341 5.49309 24.3341C6.55346 24.3341 7.4162 23.4544 7.4162 22.3731C7.4162 22.02 7.32365 21.6886 7.1628 21.4021H13.8582C13.6973 21.6886 13.6049 22.02 13.6049 22.3731C13.6049 23.4544 14.4674 24.3341 15.5278 24.3341C16.5882 24.3341 17.4509 23.4544 17.4509 22.3731C17.4509 22.02 17.3584 21.6886 17.1976 21.4021H18.329C18.6918 21.4021 18.9857 21.1082 18.9857 20.7454C18.9857 20.3827 18.6918 20.0887 18.329 20.0887H3.63862V18.1952H17.7623C18.4233 18.1952 19.1251 17.9768 19.7492 17.6155L22.7331 20.5991C22.8562 20.7222 23.0233 20.7914 23.1974 20.7914C23.3716 20.7914 23.5386 20.7222 23.6618 20.599L25.8077 18.453C26.0641 18.1965 26.0641 17.7808 25.8076 17.5243ZM15.5279 21.7255C15.8641 21.7255 16.1376 22.0159 16.1376 22.3731C16.1376 22.7303 15.8641 23.0207 15.5279 23.0207C15.1918 23.0207 14.9184 22.7303 14.9184 22.3731C14.9184 22.0159 15.1918 21.7255 15.5279 21.7255ZM5.49309 21.7255C5.82924 21.7255 6.10278 22.0159 6.10278 22.3731C6.10278 22.7303 5.82924 23.0207 5.49309 23.0207C5.15703 23.0207 4.88357 22.7303 4.88357 22.3731C4.88357 22.0159 5.15703 21.7255 5.49309 21.7255ZM21.5042 12.7892H21.0727L19.1656 10.882C19.311 10.5998 19.4381 10.309 19.544 10.01H22.8937L21.5042 12.7892ZM23.9011 5.91758C24.2193 5.91758 24.456 6.00532 24.5505 6.15829C24.6451 6.31117 24.6177 6.56221 24.4754 6.84679L23.5505 8.69661H19.8712C19.9235 8.34689 19.9503 7.99087 19.9503 7.63073C19.9503 7.04012 19.8766 6.4666 19.7403 5.91758H23.9011ZM12.8392 1.8331C16.0361 1.83319 18.637 4.43394 18.637 7.63081C18.637 9.17934 18.034 10.6352 16.9389 11.7303C15.8437 12.8253 14.3878 13.4283 12.8392 13.4283C9.64245 13.4283 7.0417 10.8275 7.0417 7.63073C7.04196 4.43403 9.64263 1.8331 12.8392 1.8331ZM3.63862 5.91758H5.93834C5.802 6.46668 5.72836 7.04012 5.72836 7.63073C5.72836 7.99297 5.75595 8.34873 5.80848 8.69661H3.63871V5.91758H3.63862ZM6.92927 16.8818H3.63862V14.1027H6.92927V16.8818ZM3.63862 12.7892V10.01H6.13912C6.33806 10.5688 6.60433 11.0956 6.92927 11.5804V12.7893H3.63862V12.7892ZM8.24269 16.8818V14.1027H9.89848C10.4138 14.3379 10.9616 14.5131 11.5334 14.6196V16.8818H8.24269ZM16.1376 16.8818H12.8469V14.7418C13.8798 14.7406 14.8783 14.5195 15.7908 14.1027H16.1376V16.8818ZM17.7622 16.8818H17.451V15.3174L18.7736 16.6399C18.4353 16.7919 18.0834 16.8818 17.7622 16.8818ZM23.1974 19.206L17.2211 13.23C17.4458 13.0535 17.6624 12.8642 17.8676 12.6591C18.0728 12.454 18.2621 12.2373 18.4385 12.0127L24.4145 17.9887L23.1974 19.206Z" fill="white"/>
</svg>
