<svg id="visual" viewBox="0 0 1080 1920" width="1080" height="1920" xmlns="http://www.w3.org/2000/svg" xmlns:xlink="http://www.w3.org/1999/xlink" version="1.1"><rect x="0" y="0" width="1080" height="1920" fill="#026064"></rect><defs><linearGradient id="grad1_0" x1="0%" y1="0%" x2="100%" y2="100%"><stop offset="30%" stop-color="#026064" stop-opacity="1"></stop><stop offset="70%" stop-color="#026064" stop-opacity="1"></stop></linearGradient></defs><defs><linearGradient id="grad2_0" x1="0%" y1="0%" x2="100%" y2="100%"><stop offset="30%" stop-color="#026064" stop-opacity="1"></stop><stop offset="70%" stop-color="#026064" stop-opacity="1"></stop></linearGradient></defs><g transform="translate(1080, 0)"><path d="M0 756C-50.6 750 -101.3 744 -142.8 717.9C-184.3 691.8 -216.8 645.7 -260.2 628.2C-303.7 610.8 -358.2 622.1 -410.6 614.5C-463 606.8 -513.3 580.1 -534.6 534.6C-555.8 489 -548.1 424.7 -569.6 380.6C-591.1 336.5 -641.9 312.7 -663.3 274.8C-684.8 236.9 -677 184.9 -687.5 136.8C-698.1 88.6 -727 44.3 -756 0L0 0Z" fill="#4FD6F7"></path></g><g transform="translate(0, 1920)"><path d="M0 -756C44.8 -713.8 89.7 -671.6 127.6 -641.4C165.5 -611.2 196.4 -593 249.1 -601.4C301.8 -609.9 376.2 -645.2 420 -628.6C463.8 -612 477 -543.7 490.7 -490.7C504.4 -437.8 518.6 -400.3 552.1 -368.9C585.6 -337.5 638.4 -312.4 662.4 -274.4C686.4 -236.4 681.6 -185.6 692.4 -137.7C703.2 -89.9 729.6 -44.9 756 0L0 0Z" fill="#4FD6F7"></path></g></svg>