<svg width="24" height="23" viewBox="0 0 24 23" fill="none" xmlns="http://www.w3.org/2000/svg">
<path d="M23.5328 5.66673L12.3779 0.0892727C12.14 -0.0297576 11.86 -0.0297576 11.6221 0.0892727L0.467152 5.66673C0.180848 5.80992 0 6.10244 0 6.42261V21.7606C0 22.2273 0.378343 22.6057 0.845091 22.6057H3.63386C4.10053 22.6057 4.47895 22.2274 4.47895 21.7606V8.66204H19.5212V21.7606C19.5212 22.2273 19.8996 22.6057 20.3663 22.6057H23.1551C23.6217 22.6057 24.0002 22.2274 24.0002 21.7606V6.42261C24 6.10244 23.8192 5.80992 23.5328 5.66673ZM22.3099 20.9155H21.2113V7.81695C21.2113 7.35028 20.833 6.97186 20.3662 6.97186H3.63378C3.16711 6.97186 2.78869 7.3502 2.78869 7.81695V20.9155H1.6901V6.94487L12 1.78996L22.3099 6.94487V20.9155Z" fill="white"/>
<path d="M17.5775 10.0141H12C11.6733 10.0141 11.4085 10.2789 11.4085 10.6056V15.5916H6.42257C6.09586 15.5916 5.83105 15.8564 5.83105 16.1831V21.7605C5.83105 22.0872 6.09586 22.352 6.42257 22.352H17.5775C17.9042 22.352 18.169 22.0872 18.169 21.7605V10.6057C18.1691 10.2789 17.9042 10.0141 17.5775 10.0141ZM12.5915 17.6114L13.9521 18.9719L12.5915 20.3325V17.6114ZM11.4085 20.3324L10.0479 18.9718L11.4085 17.6113V20.3324ZM13.4282 16.7747H16.1493L14.7887 18.1352L13.4282 16.7747ZM13.4282 15.5916L14.7888 14.231L16.1494 15.5916H13.4282ZM16.986 14.7549L15.6255 13.3944L16.986 12.0338V14.7549ZM14.7888 12.5578L13.4282 11.1972H16.1493L14.7888 12.5578ZM13.9521 13.3944L12.5915 14.7549V12.0339L13.9521 13.3944ZM9.21126 18.1352L7.85069 16.7747H10.5717L9.21126 18.1352ZM8.37465 18.9718L7.01409 20.3324V17.6114L8.37465 18.9718ZM9.21126 19.8085L10.5718 21.1691H7.85077L9.21126 19.8085ZM14.7887 19.8085L16.1493 21.1691H13.4282L14.7887 19.8085ZM15.6254 18.9718L16.986 17.6113V20.3323L15.6254 18.9718Z" fill="white"/>
</svg>